<svg version="1.1" viewBox="0.0 0.0 96.0 96.0" fill="none" stroke="none" stroke-linecap="square" stroke-miterlimit="10" xmlns:xlink="http://www.w3.org/1999/xlink"
    xmlns="http://www.w3.org/2000/svg">
    <clipPath id="p.0">
        <path d="m0 0l96.0 0l0 96.0l-96.0 0l0 -96.0z" clip-rule="nonzero" />
    </clipPath>
    <g clip-path="url(#p.0)">
        <path fill="#000000" fill-opacity="0.0" d="m0 0l96.0 0l0 96.0l-96.0 0z" fill-rule="evenodd" />
        <path fill="#000000" fill-opacity="0.2769" d="m21.377953 21.5958l56.220474 0l0 56.220474l-56.220474 0z" fill-rule="evenodd"
        />
        <path fill="#d9d9d9" d="m20.204725 20.204725l55.590546 0l0 55.590546l-55.590546 0z" fill-rule="evenodd" />
        <path fill="#000000" fill-opacity="0.0615" d="m20.84252 22.624672l55.590546 0l0 4.8188972l-55.590546 0z" fill-rule="evenodd"
        />
        <path fill="#ffffff" d="m20.204725 20.204725l55.590546 0l0 6.2362194l-55.590546 0z" fill-rule="evenodd" />
        <path fill="#000000" fill-opacity="0.0" d="m34.855644 62.666668l8.440945 -13.070866" fill-rule="evenodd" />
        <path stroke="#cc0000" stroke-width="3.0" stroke-linejoin="round" stroke-linecap="butt" d="m34.855644 62.666668l8.440945 -13.070866"
            fill-rule="evenodd" />
        <path fill="#000000" fill-opacity="0.0" d="m44.842537 49.102345l8.377953 5.7007904" fill-rule="evenodd" />
        <path stroke="#cc0000" stroke-width="3.0" stroke-linejoin="round" stroke-linecap="butt" d="m44.842537 49.102345l8.377953 5.7007904"
            fill-rule="evenodd" />
        <path fill="#999999" d="m41.356956 48.58005l0 0c0 -1.4698601 1.191555 -2.661415 2.661415 -2.661415l0 0c0.7058525 0 1.3827934 0.2803955 1.8819084 0.7795105c0.49911118 0.49911118 0.7795105 1.1760521 0.7795105 1.8819046l0 0c0 1.4698601 -1.1915588 2.661419 -2.661419 2.661419l0 0c-1.4698601 0 -2.661415 -1.1915588 -2.661415 -2.661419z"
            fill-rule="evenodd" />
        <path fill="#999999" d="m31.795275 62.769028l0 0c0 -1.4698601 1.1915569 -2.661415 2.661417 -2.661415l0 0c0.7058525 0 1.3827934 0.28039932 1.8819084 0.7795105c0.49911118 0.49911118 0.7795105 1.1760559 0.7795105 1.8819046l0 0c0 1.4698639 -1.1915588 2.661415 -2.661419 2.661415l0 0c-1.4698601 0 -2.661417 -1.1915512 -2.661417 -2.661415z"
            fill-rule="evenodd" />
        <path fill="#000000" fill-opacity="0.0" d="m54.842537 55.664024l9.826775 -19.055119" fill-rule="evenodd" />
        <path stroke="#cc0000" stroke-width="3.0" stroke-linejoin="round" stroke-linecap="butt" d="m54.842537 55.664024l9.826775 -19.055119"
            fill-rule="evenodd" />
        <path fill="#999999" d="m51.98163 55.643044l0 0c0 -1.4698601 1.191555 -2.661415 2.661415 -2.661415l0 0c0.7058525 0 1.3827934 0.2803955 1.8819084 0.7795105c0.49911118 0.49911118 0.7795105 1.1760521 0.7795105 1.8819046l0 0c0 1.4698601 -1.1915588 2.661419 -2.661419 2.661419l0 0c-1.4698601 0 -2.661415 -1.1915588 -2.661415 -2.661419z"
            fill-rule="evenodd" />
        <path fill="#999999" d="m61.85827 36.643044l0 0c0 -1.4698601 1.191555 -2.661415 2.661415 -2.661415l0 0c0.7058563 0 1.3827972 0.2803955 1.8819046 0.7795105c0.499115 0.49911118 0.7795105 1.1760521 0.7795105 1.8819046l0 0c0 1.4698601 -1.1915512 2.661419 -2.661415 2.661419l0 0c-1.4698601 0 -2.661415 -1.1915588 -2.661415 -2.661419z"
            fill-rule="evenodd" />
    </g>
</svg>